PathFileType	4	(X/Y/Z)	T1_P1_NoVision_NoMovement_0_0-649.trc
DataRate	CameraRate	NumFrames	NumMarkers	Units	OrigDataRate	OrigDataStartFrame	OrigNumFrames
60	60	7	27	m	60	486	649
Frame#	Time	RHip			RKnee			RAnkle			RBigToe			RSmallToe			RHeel			LHip			LKnee			LAnkle			LBigToe			LSmallToe			LHeel			Neck			Head			Nose			RShoulder			RElbow			RWrist			RThumb			RIndex			RPinky			LShoulder			LElbow			LWrist			LThumb			LIndex			LPinky		
		X1	Y1	Z1	X2	Y2	Z2	X3	Y3	Z3	X4	Y4	Z4	X5	Y5	Z5	X6	Y6	Z6	X7	Y7	Z7	X8	Y8	Z8	X9	Y9	Z9	X10	Y10	Z10	X11	Y11	Z11	X12	Y12	Z12	X13	Y13	Z13	X14	Y14	Z14	X15	Y15	Z15	X16	Y16	Z16	X17	Y17	Z17	X18	Y18	Z18	X19	Y19	Z19	X20	Y20	Z20	X21	Y21	Z21	X22	Y22	Z22	X23	Y23	Z23	X24	Y24	Z24	X25	Y25	Z25	X26	Y26	Z26	X27	Y27	Z27
487	8.116666666666667	-70.93546003054593	3822.1871292404053	-514.1645863518248	305.96893129136885	3997.1809962890757	-539.3632401949259	638.0026313904652	4130.44328226644	-528.0227463824394	729.5666613415704	4022.404637643097	-504.874820732524	735.1100060961355	4066.194466217028	-602.540704636675	663.6564163255306	4175.03847022398	-517.784146116101	-104.32354482425544	3911.3995088658476	-343.24975214578546	260.7519836181872	4026.7762450804903	-336.15243800086046	603.7782729137294	4253.620181461883	-358.8713428300623	674.8700543284137	4131.942595782987	-245.88509792506517	651.4006232199931	4221.352239467631	-224.52783785858566	632.3591705526997	4286.16618285056	-384.3333420602663	-628.4402364210073	3675.248296769859	-450.4362890896495	-885.9589833359828	3493.0143112953333	-378.2931805312108	-697.7005966037568	3492.19939581984	-317.25533241411506	-556.5206438235933	3607.9137048405096	-562.8514699224206	-282.70851835911304	3720.1579918870707	-657.1840735455946	-33.19074062344528	3741.025801655835	-588.9956789445872	77.13083724118592	3773.317422220917	-543.3988981595439	102.01775024571305	3774.1102461785276	-553.7660965528429	93.62439944731425	3799.7397869417177	-578.1610188019877	-615.76089056286	3824.474119447099	-343.1791823628955	-379.470402738073	3987.104256984637	-304.6143170589557	-132.20839804748564	3951.241031656422	-210.05649654395785	-15.588633477487363	3968.9394114423453	-219.63293452080288	8.123597785453878	3970.2347070220285	-203.24653754713236	-9.69042159379162	4005.9582796575987	-203.43900364801456
488	8.133333333333333	-71.04110586745709	3819.2144730371056	-511.86742921846263	305.39243891150323	3990.065787191718	-534.353360191464	637.8549340947195	4134.8346788001545	-528.5437129671308	729.3956354729632	4015.549542274993	-503.997175894572	735.974783475058	4069.6062086869742	-604.9172677606065	663.6938667263051	4175.06496847282	-517.7234266668012	-104.43716388724584	3911.1519106045694	-342.0619323900549	260.7741840646671	4026.729543877827	-336.105304914987	603.994099172653	4253.880941958001	-358.96340855240993	675.3407393472053	4134.084042251428	-248.36064476807792	652.2223209041916	4222.631194351841	-224.6018505154785	632.1448089627306	4283.400984619391	-383.803285280225	-629.412844452101	3674.624744683726	-450.19651323718585	-885.9559096136127	3493.012466486505	-378.2552566276189	-698.425257815317	3491.9880295380262	-317.26642714669197	-556.5377830078783	3607.9171760383147	-562.8442060821873	-283.0453118051156	3721.327949162181	-659.003658299948	-33.18020251672586	3740.6135424524555	-588.8226152987315	77.31301003533311	3777.903415790029	-544.6447922555622	101.0339836839143	3777.315681295186	-557.0312440803864	93.63511782604937	3799.7795672702646	-578.1110249060557	-615.261697740047	3821.1630989821124	-342.5471132260057	-381.51159832721845	3986.233436346487	-304.49924182774294	-133.04459739239815	3951.014707939714	-210.2243303807164	-13.94625292925776	3972.9437552022537	-223.00171591613287	9.56236533214161	3980.984887870617	-208.46018230697712	-9.524325144622278	4005.900098041247	-203.47853086607202
489	8.15	-70.92917166901502	3822.152346679337	-514.0577580644623	302.6549512202889	3985.3673153572745	-530.8313890037738	637.5708000160773	4139.278852521096	-529.1457131881559	728.4586988176516	4014.1531836971176	-505.85219694762884	736.3811065119036	4071.5631860308804	-606.2663875943359	663.7032388287811	4175.014996956733	-517.6648291128836	-104.52630242677932	3911.0116896729487	-341.4509453683741	260.75242717236466	4026.6874576307437	-336.07588632834	604.0319296002913	4254.351951424537	-359.0391355114264	677.8511765681827	4144.637179772571	-253.27644101176995	653.7474111658877	4226.7374335135355	-225.04257834861434	633.3486801845769	4286.77923285478	-384.4970529757701	-630.3733581293593	3674.0091692374185	-449.9694680830536	-885.9387879018052	3493.0043597012427	-378.2234805349359	-697.9213124132137	3492.0661575901677	-317.24843752731806	-556.5460043908447	3607.927305924423	-562.8474909912163	-283.79409922486167	3723.5741443690704	-661.3773610881558	-33.183739038826666	3740.4329589760932	-588.7215666068022	77.29470468931868	3778.9066491927397	-544.950711654591	99.34286555591522	3779.252798206442	-558.6996278270301	93.60858945137736	3799.7976875870186	-578.0933138986527	-614.5819313036357	3816.5971310693776	-341.65257995421325	-383.8663735803752	3985.2004103499266	-304.3738826795339	-133.52808007858462	3950.865386178794	-210.29401395843183	-12.39423172637466	3980.9503609666376	-226.86212220228367	11.974569327953217	3989.7947651240847	-212.67678037289568	-9.122480561565853	4006.03155940272	-203.14215599014
490	8.166666666666666	-70.70677369497461	3828.1123314142997	-518.5586298096285	299.87948432171555	3986.9621266198674	-531.6312651182558	636.8159206936575	4141.67465952496	-529.9034614984314	727.5279600842982	4018.2057792015144	-509.522441463922	736.3431166051064	4071.851664752223	-606.483338760499	663.6838163801863	4174.946604028747	-517.6640458501884	-104.57729338957216	3910.9793764684546	-341.3569852887871	260.6884497051326	4026.627727312066	-336.0564237707	603.9615211624346	4254.292018115245	-359.0116966706569	679.7418554998826	4153.635690267662	-255.82886025208722	654.791735052171	4230.83058912549	-225.58158317976046	635.3751950321589	4293.393934171645	-385.86827662933143	-631.2275353494041	3673.47751534288	-449.7855142017356	-885.9060559898784	3492.9780385206595	-378.2020132370696	-696.8734124435125	3492.295010955857	-317.2292656303714	-556.5396384332555	3607.9277196877547	-562.8563188531944	-284.1974993111041	3725.034065996089	-662.2862190762849	-33.21054911939094	3740.3100025971944	-588.8105174670652	77.14009570762032	3774.4923789961467	-543.8149109493206	97.89107421357153	3778.9909765380435	-557.9849233668353	93.56663140662496	3799.765746880178	-578.2423600456119	-614.2541375898444	3814.2991613575296	-341.19167542776495	-385.2867082713467	3984.164282284516	-304.0408010727917	-133.0168324354168	3951.1013659610376	-210.25604290894233	-11.511165086472523	3987.9108934754145	-229.1829034488133	14.332887386008355	3994.1200427025033	-214.52142513033388	-8.42997665338392	4007.083415328447	-202.44800057091155
491	8.183333333333334	-70.58083183959803	3831.7262034378978	-521.3009335715144	299.1323916190254	3992.8759275062475	-535.7503396940014	635.7089493413628	4142.0693485536585	-530.6878903821506	727.0315161210362	4024.24499178503	-512.2809921172212	736.359878416118	4071.9577361264337	-606.6114028879599	663.6446973976537	4174.880648306944	-517.7221041328206	-104.59723092599104	3910.9871609863503	-341.4463059757253	260.6190413337891	4026.5707512740296	-336.0374459290589	603.4503921085493	4250.8904165212725	-358.37792266713944	678.8032382748744	4152.790028509166	-253.23469929806495	654.206483374307	4230.261009399158	-225.608904043393	636.9659134255539	4297.294121993506	-386.7751381750339	-631.4774067708385	3673.358194012295	-449.757148681728	-885.8628615564013	3492.9321017396933	-378.1882390794947	-696.3442928663061	3492.4427880197904	-317.23545017141777	-556.5270825760779	3607.928691763465	-562.8732082352527	-283.8460611632951	3725.712272750913	-662.5815975605782	-33.27675042071313	3740.120922498567	-589.2787583651639	76.43882739495467	3768.4808177720697	-542.1193769029101	97.5979795654341	3776.9099599985225	-555.9265253025687	93.54815116430392	3799.6747038232934	-578.733409600139	-614.6034622483783	3816.4980314451827	-341.611334889325	-385.1797622424164	3981.9882438911754	-302.5852242405314	-131.7334786632196	3951.7728930772955	-210.29323487924532	-10.856592709476777	3991.071169838812	-229.7635061514032	15.393683237973393	3997.8401029250836	-215.17597836793715	-7.616398452081516	4010.091643477686	-201.85772699764445
492	8.2	-70.61610610405378	3831.369678282299	-521.0384418965183	300.4953378241629	3997.2140317085205	-539.3724081717437	634.4065857085742	4140.820234221219	-530.9840714012869	726.7318522302702	4030.265731652086	-512.7269262586925	736.7884801904551	4073.456251299191	-607.7270356824416	663.5849717413348	4174.827006955582	-517.7915057858336	-104.60357208171982	3910.981544438049	-341.5232642177811	260.5877946759533	4026.564947066936	-336.02055646568397	602.1973926057947	4241.928394722203	-356.7234842244629	676.0627196747535	4144.579217269509	-247.9542178365127	652.5851126362684	4225.533141548034	-225.0696826449223	636.8869063035596	4294.580113365289	-386.3852194215163	-630.6250207358526	3673.9564769610192	-449.9890964557526	-885.8157805457699	3492.8705743657565	-378.1670355694754	-696.6041973965514	3492.465831560305	-317.2548871012775	-556.5205150931683	3607.9619256701894	-562.9051755600202	-282.9558221698956	3726.303961049791	-663.9043545149714	-33.37181450628602	3739.9860511440193	-590.0525705645452	75.15919652023953	3766.8770135108916	-541.4239028166762	98.65611042805845	3774.300007882011	-554.0929902562226	93.55865989197682	3799.5649385784873	-579.4651667523112	-615.2611731631351	3820.7998500932104	-342.46169215672165	-383.68256288893264	3977.352303819146	-299.15725610195005	-130.35757464722295	3952.7055780113797	-210.59395244609433	-10.080502224734353	3991.498607239224	-229.51590525919858	14.948528087274994	4003.1358125573497	-215.96177592485148	-6.804001793833678	4014.3936585235956	-201.44228445061836
493	8.216666666666667	-70.67437615659158	3830.4246182554307	-520.3284983408665	302.5202876086557	3996.371902579355	-540.1911328100988	632.6992088208791	4137.0471600580995	-530.2384888169879	726.2870898285906	4036.659926052062	-511.9812699692916	736.979197210732	4074.5788906181588	-608.5104524461112	663.5186148702375	4174.859718933346	-517.8366893440655	-104.6114210380599	3910.9485363371914	-341.5483312446005	260.6196454333466	4026.63555098038	-336.01847289149833	600.5448116835444	4229.910427775163	-354.4969868703272	673.8309350472355	4136.611716527482	-244.2751539794417	651.4536309173761	4222.2345840470525	-224.64314975773038	635.0468447359103	4284.973133444272	-384.57360499094654	-629.0854972951887	3674.9807882767855	-450.37351574828244	-885.7716858239048	3492.8019121136977	-378.1252093754133	-697.3371066403123	3492.4039131402055	-317.2592895615878	-556.5264735622128	3608.0332026763936	-562.9434702296899	-282.38063786377666	3726.7242651817387	-665.8846359425496	-33.34376358912633	3740.225585379541	-590.5560960164371	74.07344143369284	3769.233104984756	-541.845354584327	100.47897029829343	3773.4447893609313	-553.9714173776149	93.55068269866209	3799.505744414805	-579.8381301504776	-615.7133574630171	3823.7789481757677	-343.0761146308365	-381.64044153898305	3971.260504306399	-294.6369743418896	-129.4369582163295	3953.5673422276946	-211.0851919566744	-9.681453444861264	3991.0474236618766	-229.21189885360337	13.888414826038101	4006.2659294586488	-216.63776303512935	-5.983630188237758	4016.589071310716	-200.623986105252
